Coordinates
version=1
nRows=9
nColumns=36
inDegrees=yes

Units are S.I. units (second, meters, Newtons, ...)
If the header above contains a line with 'inDegrees', this indicates whether rotational values are in degrees (yes) or radians (no).

endheader
time	pelvis_tilt	pelvis_list	pelvis_rotation	pelvis_tx	pelvis_ty	pelvis_tz	hip_flexion_r	hip_adduction_r	hip_rotation_r	knee_angle_r	knee_angle_r_beta	ankle_angle_r	subtalar_angle_r	mtp_angle_r	hip_flexion_l	hip_adduction_l	hip_rotation_l	knee_angle_l	knee_angle_l_beta	ankle_angle_l	subtalar_angle_l	mtp_angle_l	lumbar_extension	lumbar_bending	lumbar_rotation	arm_flex_r	arm_add_r	arm_rot_r	elbow_flex_r	pro_sup_r	arm_flex_l	arm_add_l	arm_rot_l	elbow_flex_l	pro_sup_l
      5.15833330	    -13.95650931	     -1.89797143	      1.71685421	      0.27371463	      0.93667768	     -0.07240455	     23.58684296	     -3.12581869	     -3.96295113	     16.27825660	      0.28410917	      0.27612253	    -29.66541893	     -7.49999987	     26.11774973	     -5.36239798	      6.53984492	     17.26382030	      0.30131051	      3.54474242	    -14.91455436	     -7.49999987	     -9.42952324	      1.47857674	     -2.75624355	     24.48233265	     -8.47065586	      9.75757616	     99.62152792	     86.21142042	     32.49935676	     -7.25073876	     27.76794461	     99.03616287	     70.38402540
      5.16250000	    -13.76733585	     -1.92598532	      1.74183833	      0.27401226	      0.93540791	     -0.07217427	     23.28424026	     -3.10483849	     -4.08696823	     16.09669611	      0.28094035	      0.29379083	    -29.51176087	     -7.49999987	     25.83216814	     -5.45502639	      6.47865059	     17.08473727	      0.29818492	      3.47429936	    -14.95577997	     -7.49999987	     -9.51205820	      1.52723532	     -2.69845632	     24.27456232	     -8.51389858	      9.79976972	     99.43916382	     86.09951152	     32.18130822	     -7.29231432	     27.65459436	     98.88132327	     70.33701891
      5.16666670	    -13.72615737	     -1.92580639	      1.78108645	      0.27399286	      0.93716161	     -0.07328659	     23.13146298	     -3.13673227	     -4.14872271	     15.89988413	      0.27750533	      0.09224606	    -29.48817460	     -7.49999987	     25.70070740	     -5.47364707	      6.34130781	     16.88067333	      0.29462333	      3.41002628	    -14.82098265	     -7.49999987	     -9.38481091	      1.57109902	     -2.67760689	     24.09761198	     -8.61125278	      9.91576740	     98.86391126	     85.64075157	     31.78046044	     -7.12165435	     27.53025141	     98.38380547	     70.05387876
      5.17083330	    -13.64581382	     -1.92639191	      1.84739426	      0.27499547	      0.93693748	     -0.07293822	     22.88432429	     -3.15669641	     -4.18434766	     15.69181843	      0.27387390	     -0.00734208	    -29.43361345	     -7.49999987	     25.46505411	     -5.49495692	      6.28166674	     16.60005248	      0.28972557	      3.32977013	    -14.72476450	     -7.49999987	     -9.25607710	      1.57930308	     -2.69485835	     23.85625805	     -8.63879017	     10.04769170	     98.42727752	     84.84428310	     31.40340818	     -7.05817259	     27.28737013	     97.88898718	     69.62558469
      5.17500000	    -13.46853474	     -1.92918690	      1.92034957	      0.27486880	      0.93671923	     -0.07254743	     22.56357229	     -3.16505564	     -4.24835919	     15.53633064	      0.27116012	      0.00137674	    -29.24098057	     -7.49999987	     25.14491203	     -5.51763462	      6.15622363	     16.33288275	      0.28506258	      3.30674231	    -14.52760068	     -7.49999987	     -9.27628156	      1.62675526	     -2.88999890	     23.85522598	     -8.57173836	     10.16477227	     97.58168286	     87.57927532	     30.85784653	     -7.03786782	     26.55460933	     97.45623262	     69.88765899
      5.17916670	    -13.34481259	     -1.91516637	      1.98679454	      0.27471522	      0.93824476	     -0.07376880	     22.32789336	     -3.22627590	     -4.35602685	     15.42181380	      0.26916143	     -0.10826256	    -29.20021119	     -7.49999987	     24.88994899	     -5.47308702	      6.08957446	     16.11622958	      0.28128127	      3.21032800	    -14.42732974	     -7.49999987	     -9.28664639	      1.62335517	     -2.85226291	     23.72715556	     -8.68682790	     10.12576435	     97.00924920	     86.82019711	     30.57435878	     -6.88472441	     26.31346243	     96.75056201	     69.51732777
      5.18333330	    -13.22849604	     -1.91306513	      2.04692643	      0.27457951	      0.93804360	     -0.07297370	     22.11382136	     -3.24024681	     -4.46303215	     15.30041747	      0.26704266	     -0.17380616	    -29.19211509	     -7.49999987	     24.66945648	     -5.46258553	      6.00906512	     15.92090526	      0.27787222	      3.18131814	    -14.34950212	     -7.49999987	     -9.29315697	      1.58689400	     -2.81992242	     23.63547014	     -8.78313301	     10.22531008	     96.36273576	     85.93542881	     30.37042552	     -6.81248946	     26.14342511	     96.22514271	     69.03703294
      5.18750000	    -13.06627249	     -1.91394824	      2.11764077	      0.27520788	      0.93974029	     -0.07251626	     21.79193774	     -3.24065296	     -4.54320648	     15.06282365	      0.26289587	     -0.23885271	    -29.09155379	     -7.49999987	     24.36440927	     -5.48185278	      5.97839557	     15.66932519	      0.27348132	      3.14603246	    -14.17372345	     -7.49999987	     -9.32488596	      1.56444561	     -2.82969925	     23.56279455	     -8.84177763	     10.29870281	     95.67654125	     83.88932089	     30.11444909	     -6.84427360	     25.99616603	     95.74652929	     68.14324550
      5.19166670	    -12.92803950	     -1.87982478	      2.17013074	      0.27579845	      0.94025359	     -0.07345263	     21.46891581	     -3.26080743	     -4.59165325	     14.83812721	      0.25897417	     -0.21637270	    -28.93121606	     -7.49999987	     24.07281359	     -5.45127433	      5.96767722	     15.42344789	      0.26918995	      3.13489144	    -14.05007085	     -7.49999987	     -9.29731899	      1.53486402	     -2.86586161	     23.33051841	     -8.95784400	     10.17777798	     95.09434525	     83.56122080	     29.68442683	     -6.82511136	     25.82340611	     95.36118558	     67.90518104
